<?xml version="1.0" encoding="utf-8"?>
<!-- Generator: Adobe Illustrator 21.0.0, SVG Export Plug-In . SVG Version: 6.00 Build 0)  -->
<svg version="1.1" id="Layer_1" xmlns="http://www.w3.org/2000/svg" xmlns:xlink="http://www.w3.org/1999/xlink" x="0px" y="0px"
	 viewBox="0 0 40 40" style="enable-background:new 0 0 40 40;" xml:space="preserve">
<style type="text/css">
	.st0{stroke:#000000;stroke-width:1.5;stroke-linejoin:round;}
	.st1{fill:none;stroke:#FFFFFF;stroke-width:1.5;stroke-linecap:round;}
</style>
<g transform="translate(90,45)">
	<g>
		<path class="st0" d="M-83.5-11.2c3.4-1,10.1,0.4,13.5-2c3.4,2.4,10.1,1,13.5,2c0,0,1.7,0.5,3,2c-0.7,1-1.7,1-3,0.5
			c-3.4-1-10.1,0.5-13.5-1c-3.4,1.5-10.1,0-13.5,1c-1.4,0.5-2.3,0.5-3-0.5C-85.2-11.2-83.5-11.2-83.5-11.2z"/>
		<path class="st0" d="M-77.5-15.2c2.5,2.5,12.5,2.5,15,0c0.5-1.5,0-2,0-2c0-2.5-2.5-4-2.5-4c5.5-1.5,6-11.5-5-15.5
			c-11,4-10.5,14-5,15.5c0,0-2.5,1.5-2.5,4C-77.5-17.2-78-16.7-77.5-15.2z"/>
		<path class="st0" d="M-67.5-39.2c0,1.4-1.1,2.5-2.5,2.5s-2.5-1.1-2.5-2.5c0-1.4,1.1-2.5,2.5-2.5S-67.5-40.6-67.5-39.2z"/>
	</g>
	<path class="st1" d="M-75-21.2h10 M-77.5-17.2h15 M-70-31.7v5 M-72.5-29.2h5"/>
</g>
</svg>
