<?xml version="1.0" encoding="utf-8"?>
<!-- Generator: Adobe Illustrator 21.0.0, SVG Export Plug-In . SVG Version: 6.00 Build 0)  -->
<svg version="1.1" id="Layer_1" xmlns="http://www.w3.org/2000/svg" xmlns:xlink="http://www.w3.org/1999/xlink" x="0px" y="0px"
	 viewBox="0 0 40 40" style="enable-background:new 0 0 40 40;" xml:space="preserve">
<style type="text/css">
	.st0{stroke:#000000;stroke-width:1.5;stroke-linecap:round;stroke-linejoin:round;}
	.st1{fill:#FFFFFF;stroke:#FFFFFF;stroke-width:1.5;stroke-linecap:round;stroke-linejoin:round;}
	.st2{fill:#FFFFFF;}
</style>
<g transform="translate(135,45)">
	<path class="st0" d="M-115-38.3c10.5,1,16.5,8,16,29h-23c0-9,10-6.5,8-21"/>
	<path class="st0" d="M-113-30.3c0.4,2.9-5.6,7.4-8,9c-3,2-2.8,4.3-5,4c-1-0.9,1.4-3,0-3c-1,0,0.2,1.2-1,2c-1,0-4,1-4-4
		c0-2,6-12,6-12s1.9-1.9,2-3.5c-0.7-1-0.5-2-0.5-3c1-1,3,2.5,3,2.5h2c0,0,0.8-2,2.5-3c1,0,1,3,1,3"/>
	<path class="st1" d="M-127.5-22.8c0,0.3-0.2,0.5-0.5,0.5s-0.5-0.2-0.5-0.5s0.2-0.5,0.5-0.5S-127.5-23.1-127.5-22.8z"/>
	<path class="st1" d="M-122.1-32.6c-0.4,0.7-0.9,1.2-1.2,1c-0.2-0.1-0.1-0.8,0.3-1.5c0.4-0.7,0.9-1.2,1.2-1
		C-121.5-34-121.7-33.3-122.1-32.6z"/>
	<path class="st2" d="M-112.5-37.9l-0.4,1.4l0.5,0.1c3.1,1,5.6,2.5,7.9,6.8c2.3,4.3,3.2,10.3,2.8,20.3v0.5h2.2v-0.5
		c0.5-10.1-0.9-16.9-3.2-21.3c-2.4-4.5-5.8-6.6-9.2-7.2L-112.5-37.9z"/>
</g>
</svg>
