<?xml version="1.0" encoding="utf-8"?>
<!-- Generator: Adobe Illustrator 21.0.0, SVG Export Plug-In . SVG Version: 6.00 Build 0)  -->
<svg version="1.1" id="Layer_1" xmlns="http://www.w3.org/2000/svg" xmlns:xlink="http://www.w3.org/1999/xlink" x="0px" y="0px"
	 viewBox="0 0 40 40" style="enable-background:new 0 0 40 40;" xml:space="preserve">
<style type="text/css">
	.st0{stroke:#000000;stroke-width:1.5;stroke-linejoin:round;}
	.st1{fill:none;stroke:#000000;stroke-width:1.5;stroke-linejoin:round;}
	.st2{fill:none;stroke:#FFFFFF;stroke-width:1.5;stroke-linecap:round;stroke-linejoin:round;}
</style>
<g transform="translate(45,45)">
	<g>
		<circle cx="-41.5" cy="-35.8" r="2.8"/>
		<circle cx="-33.5" cy="-38.8" r="2.8"/>
		<circle cx="-25" cy="-39.8" r="2.8"/>
		<circle cx="-16.5" cy="-38.8" r="2.8"/>
		<circle cx="-8.5" cy="-35.8" r="2.8"/>
	</g>
	<path class="st0" d="M-38.5-21.8c8.5-1.5,21-1.5,27,0L-9-34.3l-7.5,11.5l-0.3-14.1L-22-23.3l-3-14.5l-3,14.5l-5.2-13.6l-0.3,14.1
		L-41-34.3L-38.5-21.8z"/>
	<path class="st0" d="M-38.5-21.8c0,2,1.5,2,2.5,4c1,1.5,1,1,0.5,3.5c-1.5,1-1.5,2.5-1.5,2.5c-1.5,1.5,0.5,2.5,0.5,2.5
		c6.5,1,16.5,1,23,0c0,0,1.5-1,0-2.5c0,0,0.5-1.5-1-2.5c-0.5-2.5-0.5-2,0.5-3.5c1-2,2.5-2,2.5-4C-20-23.3-30-23.3-38.5-21.8z"/>
	<path class="st1" d="M-36.5-9.3c7.4,2.6,15.6,2.6,23,0"/>
	<path class="st2" d="M-36.5-18.8c7.4-2.6,15.6-2.6,23,0"/>
	<path class="st2" d="M-35-16.3h20"/>
	<path class="st2" d="M-36-13.3c7.1,2.4,14.9,2.4,22,0"/>
	<path class="st2" d="M-37-10.3c7.7,2.8,16.3,2.8,24,0"/>
</g>
</svg>
