<?xml version="1.0" encoding="utf-8"?>
<!-- Generator: Adobe Illustrator 21.0.0, SVG Export Plug-In . SVG Version: 6.00 Build 0)  -->
<svg version="1.1" id="Layer_1" xmlns="http://www.w3.org/2000/svg" xmlns:xlink="http://www.w3.org/1999/xlink" x="0px" y="0px"
	 viewBox="0 0 40 40" style="enable-background:new 0 0 40 40;" xml:space="preserve">
<style type="text/css">
	.st0{stroke:#000000;stroke-width:1.5;stroke-linejoin:round;}
	.st1{stroke:#000000;stroke-width:1.5;}
	.st2{fill:none;stroke:#FFFFFF;stroke-linecap:round;}
</style>
<g transform="translate(180,45)">
	<path class="st0" d="M-173.5-10h27v-3h-27C-173.5-13-173.5-10-173.5-10z"/>
	<path class="st0" d="M-170-17l1.5-2.5h17l1.5,2.5H-170z"/>
	<path class="st0" d="M-170.5-13v-4h21v4H-170.5z"/>
	<path class="st1" d="M-168.5-19.5v-13h17v13H-168.5z"/>
	<path class="st0" d="M-168.5-32.5l-3-2.5h23l-3,2.5H-168.5z"/>
	<path class="st0" d="M-171.5-35v-5h4v2h5v-2h5v2h5v-2h4v5H-171.5z"/>
	<path class="st2" d="M-170.5-13.5h21l0,0"/>
	<path class="st2" d="M-169.5-17.5h19"/>
	<path class="st2" d="M-168.5-19.5h17"/>
	<path class="st2" d="M-168.5-32.5h17"/>
	<path class="st2" d="M-171.5-35h23"/>
</g>
</svg>
