<?xml version="1.0" encoding="utf-8"?>
<!-- Generator: Adobe Illustrator 21.0.0, SVG Export Plug-In . SVG Version: 6.00 Build 0)  -->
<svg version="1.1" id="Layer_1" xmlns="http://www.w3.org/2000/svg" xmlns:xlink="http://www.w3.org/1999/xlink" x="0px" y="0px"
	 viewBox="0 0 40 40" style="enable-background:new 0 0 40 40;" xml:space="preserve">
<style type="text/css">
	.st0{fill:none;stroke:#000000;stroke-width:1.5;stroke-linecap:round;}
	.st1{fill:#FFFFFF;stroke:#000000;stroke-width:1.5;}
	.st2{fill:#FFFFFF;stroke:#000000;stroke-width:1.5;stroke-linecap:round;stroke-linejoin:round;}
	.st3{fill:none;stroke:#000000;stroke-width:1.5;stroke-linecap:round;stroke-linejoin:round;}
	.st4{fill:#FFFFFF;stroke:#000000;stroke-width:1.5;stroke-linejoin:round;}
	.st5{stroke:#000000;stroke-width:1.5;stroke-linecap:round;stroke-linejoin:round;}
	.st6{fill:#FFFFFF;stroke:#000000;stroke-width:1.5;stroke-linecap:round;}
	.st7{stroke:#000000;stroke-width:1.5;}
	.st8{fill:none;stroke:#FFFFFF;stroke-width:1.5;stroke-linecap:round;stroke-linejoin:round;}
	.st9{stroke:#000000;stroke-width:1.5;stroke-linejoin:round;}
	.st10{fill:none;stroke:#000000;stroke-width:1.5;stroke-linejoin:round;}
	.st11{fill:none;stroke:#FFFFFF;stroke-width:1.5;stroke-linecap:round;}
	.st12{fill:#FFFFFF;stroke:#FFFFFF;stroke-width:1.5;stroke-linecap:round;stroke-linejoin:round;}
	.st13{fill:#FFFFFF;}
	.st14{fill:none;stroke:#FFFFFF;stroke-linecap:round;}
	.st15{stroke:#000000;stroke-width:1.5;stroke-linecap:round;}
</style>
<g transform="translate(0,0)">
	<path class="st0" d="M20,8.8V3.2"/>
	<path class="st0" d="M17.5,5.2h5"/>
	<path class="st1" d="M20,22.2c0,0,4.5-7.5,3-10.5c0,0-1-2.5-3-2.5s-3,2.5-3,2.5C15.5,14.7,20,22.2,20,22.2"/>
	<path class="st2" d="M9,34.2c5.5,3.5,15.5,3.5,21,0v-7c0,0,9-4.5,6-10.5c-4-6.5-13.5-3.5-16,4v3.5v-3.5c-3.5-7.5-13-10.5-16-4
		c-3,6,5,10,5,10V34.2z"/>
	<path class="st3" d="M9,27.2c5.5-3,15.5-3,21,0"/>
	<path class="st3" d="M9,30.7c5.5-3,15.5-3,21,0"/>
	<path class="st3" d="M9,34.2c5.5-3,15.5-3,21,0"/>
</g>
<g transform="translate(45,0)">
	<path class="st2" d="M4.7,8.2c0,1.1-0.9,2-2,2s-2-0.9-2-2s0.9-2,2-2S4.7,7.1,4.7,8.2z"/>
	<path class="st2" d="M21.2,3.7c0,1.1-0.9,2-2,2c-1.1,0-2-0.9-2-2s0.9-2,2-2C20.3,1.7,21.2,2.6,21.2,3.7z"/>
	<path class="st2" d="M37.7,8.2c0,1.1-0.9,2-2,2c-1.1,0-2-0.9-2-2s0.9-2,2-2C36.8,6.2,37.7,7.1,37.7,8.2z"/>
	<path class="st2" d="M12.7,4.7c0,1.1-0.9,2-2,2s-2-0.9-2-2s0.9-2,2-2S12.7,3.6,12.7,4.7z"/>
	<path class="st2" d="M29.7,5.2c0,1.1-0.9,2-2,2c-1.1,0-2-0.9-2-2s0.9-2,2-2C28.8,3.2,29.7,4.1,29.7,5.2z"/>
	<path class="st4" d="M5.7,22.2c8.5-1.5,21-1.5,27,0l2-12l-7,11v-14l-5.5,13.5l-3-15l-3,15l-5.5-14v14.5l-7-11L5.7,22.2z"/>
	<path class="st4" d="M5.7,22.2c0,2,1.5,2,2.5,4c1,1.5,1,1,0.5,3.5c-1.5,1-1.5,2.5-1.5,2.5c-1.5,1.5,0.5,2.5,0.5,2.5
		c6.5,1,16.5,1,23,0c0,0,1.5-1,0-2.5c0,0,0.5-1.5-1-2.5c-0.5-2.5-0.5-2,0.5-3.5c1-2,2.5-2,2.5-4C24.2,20.7,14.2,20.7,5.7,22.2z"/>
	<path class="st3" d="M8.2,26.2c3.5-1,18.5-1,22,0"/>
	<path class="st3" d="M8.7,29.7c6-1,15-1,21,0"/>
</g>
<g transform="translate(90,0)">
	<g>
		<path class="st4" d="M5.7,32.2c3.4-1,10.1,0.4,13.5-2c3.4,2.4,10.1,1,13.5,2c0,0,1.7,0.5,3,2c-0.7,1-1.7,1-3,0.5
			c-3.4-1-10.1,0.5-13.5-1c-3.4,1.5-10.1,0-13.5,1c-1.4,0.5-2.3,0.5-3-0.5C4,32.2,5.7,32.2,5.7,32.2z"/>
		<path class="st4" d="M11.7,28.2c2.5,2.5,12.5,2.5,15,0c0.5-1.5,0-2,0-2c0-2.5-2.5-4-2.5-4c5.5-1.5,6-11.5-5-15.5
			c-11,4-10.5,14-5,15.5c0,0-2.5,1.5-2.5,4C11.7,26.2,11.2,26.7,11.7,28.2z"/>
		<path class="st4" d="M21.7,4.2c0,1.4-1.1,2.5-2.5,2.5s-2.5-1.1-2.5-2.5s1.1-2.5,2.5-2.5S21.7,2.8,21.7,4.2z"/>
	</g>
	<path class="st0" d="M14.2,22.2h10 M11.7,26.2h15 M19.2,11.7v5 M16.7,14.2h5"/>
</g>
<g transform="translate(135,0)">
	<path class="st2" d="M18.7,6.4c10.5,1,16.5,8,16,29h-23c0-9,10-6.5,8-21"/>
	<path class="st2" d="M20.7,14.4c0.4,2.9-5.6,7.4-8,9c-3,2-2.8,4.3-5,4c-1-0.9,1.4-3,0-3c-1,0,0.2,1.2-1,2c-1,0-4,1-4-4
		c0-2,6-12,6-12s1.9-1.9,2-3.5c-0.7-1-0.5-2-0.5-3c1-1,3,2.5,3,2.5h2c0,0,0.8-2,2.5-3c1,0,1,3,1,3"/>
	<path class="st5" d="M6.2,21.9c0,0.3-0.2,0.5-0.5,0.5s-0.5-0.2-0.5-0.5s0.2-0.5,0.5-0.5S6.2,21.6,6.2,21.9z"/>
	<path class="st5" d="M11.6,12.2c-0.4,0.7-0.9,1.2-1.2,1c-0.2-0.1-0.1-0.8,0.3-1.5c0.4-0.7,0.9-1.2,1.2-1
		C12.2,10.8,12,11.4,11.6,12.2z"/>
</g>
<g transform="translate(180,0)">
	<path class="st4" d="M5.7,35.2h27v-3h-27V35.2z"/>
	<path class="st4" d="M8.7,32.2v-4h21v4H8.7z"/>
	<path class="st4" d="M7.7,10.2v-5h4v2h5v-2h5v2h5v-2h4v5"/>
	<path class="st2" d="M30.7,10.2l-3,3h-17l-3-3"/>
	<path class="st1" d="M27.7,13.2v12.5h-17V13.2"/>
	<path class="st2" d="M27.7,25.7l1.5,2.5h-20l1.5-2.5"/>
	<path class="st0" d="M7.7,10.2h23"/>
</g>
<g transform="translate(225,0)">
	<path class="st6" d="M18.7,5.2c-2.2,0-4,1.8-4,4c0,0.9,0.3,1.7,0.8,2.4c-2,1.1-3.3,3.2-3.3,5.6c0,2,0.9,3.8,2.4,5
		c-3,1.1-7.4,5.5-7.4,13.5h23c0-7.9-4.4-12.4-7.4-13.5c1.5-1.2,2.4-3,2.4-5c0-2.4-1.3-4.5-3.3-5.6c0.5-0.7,0.8-1.5,0.8-2.4
		C22.7,7,20.9,5.2,18.7,5.2z"/>
</g>
<g transform="translate(0,45)">
	<path class="st0" d="M19.2,7.8V2.2"/>
	<path class="st7" d="M19.2,21.2c0,0,4.5-7.5,3-10.5c0,0-1-2.5-3-2.5s-3,2.5-3,2.5C14.7,13.7,19.2,21.2,19.2,21.2"/>
	<path class="st5" d="M8.2,33.2c5.5,3.5,15.5,3.5,21,0v-7c0,0,9-4.5,6-10.5c-4-6.5-13.5-3.5-16,4v3.5v-3.5c-3.5-7.5-13-10.5-16-4
		c-3,6,5,10,5,10V33.2z"/>
	<path class="st0" d="M16.7,4.2h5"/>
	<path class="st8" d="M28.7,25.7c0,0,8.5-4,6-9.6c-3.9-5.8-13-1.8-15.5,4.6l0,2.1l0-2.1C16.7,14.2,6.6,10.2,3.7,16
		c-2.5,5.6,4.9,9,4.9,9"/>
	<path class="st8" d="M8.2,26.2c5.5-3,15.5-3,21,0 M8.2,29.7c5.5-3,15.5-3,21,0 M8.2,33.2c5.5-3,15.5-3,21,0"/>
</g>
<g transform="translate(45,45)">
	<g>
		<circle cx="2.7" cy="6.5" r="2.8"/>
		<circle cx="10.7" cy="3.5" r="2.8"/>
		<circle cx="19.2" cy="2.5" r="2.8"/>
		<circle cx="27.7" cy="3.5" r="2.8"/>
		<circle cx="35.7" cy="6.5" r="2.8"/>
	</g>
	<path class="st9" d="M5.7,20.5c8.5-1.5,21-1.5,27,0L35.2,8l-7.5,11.5L27.4,5.4L22.2,19l-3-14.5l-3,14.5L11,5.4l-0.3,14.1L3.2,8
		L5.7,20.5z"/>
	<path class="st9" d="M5.7,20.5c0,2,1.5,2,2.5,4c1,1.5,1,1,0.5,3.5c-1.5,1-1.5,2.5-1.5,2.5C5.7,32,7.7,33,7.7,33c6.5,1,16.5,1,23,0
		c0,0,1.5-1,0-2.5c0,0,0.5-1.5-1-2.5c-0.5-2.5-0.5-2,0.5-3.5c1-2,2.5-2,2.5-4C24.2,19,14.2,19,5.7,20.5z"/>
	<path class="st10" d="M7.7,33c7.4,2.6,15.6,2.6,23,0"/>
	<path class="st8" d="M7.7,23.5c7.4-2.6,15.6-2.6,23,0"/>
	<path class="st8" d="M9.2,26h20"/>
	<path class="st8" d="M8.2,29c7.1,2.4,14.9,2.4,22,0"/>
	<path class="st8" d="M7.2,32c7.7,2.8,16.3,2.8,24,0"/>
</g>
<g transform="translate(90,45)">
	<g>
		<path class="st9" d="M5.7,32.2c3.4-1,10.1,0.4,13.5-2c3.4,2.4,10.1,1,13.5,2c0,0,1.7,0.5,3,2c-0.7,1-1.7,1-3,0.5
			c-3.4-1-10.1,0.5-13.5-1c-3.4,1.5-10.1,0-13.5,1c-1.4,0.5-2.3,0.5-3-0.5C4,32.2,5.7,32.2,5.7,32.2z"/>
		<path class="st9" d="M11.7,28.2c2.5,2.5,12.5,2.5,15,0c0.5-1.5,0-2,0-2c0-2.5-2.5-4-2.5-4c5.5-1.5,6-11.5-5-15.5
			c-11,4-10.5,14-5,15.5c0,0-2.5,1.5-2.5,4C11.7,26.2,11.2,26.7,11.7,28.2z"/>
		<path class="st9" d="M21.7,4.2c0,1.4-1.1,2.5-2.5,2.5s-2.5-1.1-2.5-2.5s1.1-2.5,2.5-2.5S21.7,2.8,21.7,4.2z"/>
	</g>
	<path class="st11" d="M14.2,22.2h10 M11.7,26.2h15 M19.2,11.7v5 M16.7,14.2h5"/>
</g>
<g transform="translate(135,45)">
	<path class="st5" d="M18.7,6.2c10.5,1,16.5,8,16,29h-23c0-9,10-6.5,8-21"/>
	<path class="st5" d="M20.7,14.2c0.4,2.9-5.6,7.4-8,9c-3,2-2.8,4.3-5,4c-1-0.9,1.4-3,0-3c-1,0,0.2,1.2-1,2c-1,0-4,1-4-4
		c0-2,6-12,6-12s1.9-1.9,2-3.5c-0.7-1-0.5-2-0.5-3c1-1,3,2.5,3,2.5h2c0,0,0.8-2,2.5-3c1,0,1,3,1,3"/>
	<path class="st12" d="M6.2,21.7c0,0.3-0.2,0.5-0.5,0.5s-0.5-0.2-0.5-0.5s0.2-0.5,0.5-0.5S6.2,21.4,6.2,21.7z"/>
	<path class="st12" d="M11.6,11.9c-0.4,0.7-0.9,1.2-1.2,1c-0.2-0.1-0.1-0.8,0.3-1.5c0.4-0.7,0.9-1.2,1.2-1
		C12.2,10.5,12,11.2,11.6,11.9z"/>
	<path class="st13" d="M21.2,6.6L20.8,8l0.5,0.1c3.1,1,5.6,2.5,7.9,6.8s3.2,10.3,2.8,20.3l0,0.5h2.2l0-0.5
		c0.5-10.1-0.9-16.9-3.2-21.3c-2.4-4.5-5.8-6.6-9.2-7.2L21.2,6.6z"/>
</g>
<g transform="translate(180,45)">
	<path class="st9" d="M5.7,35.2h27v-3h-27V35.2z"/>
	<path class="st9" d="M9.2,28.2l1.5-2.5h17l1.5,2.5H9.2z"/>
	<path class="st9" d="M8.7,32.2v-4h21v4H8.7z"/>
	<path class="st7" d="M10.7,25.7v-13h17v13H10.7z"/>
	<path class="st9" d="M10.7,12.7l-3-2.5h23l-3,2.5H10.7z"/>
	<path class="st9" d="M7.7,10.2v-5h4v2h5v-2h5v2h5v-2h4v5H7.7z"/>
	<path class="st14" d="M8.7,31.7h21l0,0"/>
	<path class="st14" d="M9.7,27.7h19"/>
	<path class="st14" d="M10.7,25.7h17"/>
	<path class="st14" d="M10.7,12.7h17"/>
	<path class="st14" d="M7.7,10.2h23"/>
</g>
<g transform="translate(225,45)">
	<path class="st15" d="M18.7,5.2c-2.2,0-4,1.8-4,4c0,0.9,0.3,1.7,0.8,2.4c-2,1.1-3.3,3.2-3.3,5.6c0,2,0.9,3.8,2.4,5
		c-3,1.1-7.4,5.5-7.4,13.5h23c0-7.9-4.4-12.4-7.4-13.5c1.5-1.2,2.4-3,2.4-5c0-2.4-1.3-4.5-3.3-5.6c0.5-0.7,0.8-1.5,0.8-2.4
		C22.7,7,20.9,5.2,18.7,5.2z"/>
</g>
</svg>
