<?xml version="1.0" encoding="utf-8"?>
<!-- Generator: Adobe Illustrator 21.0.0, SVG Export Plug-In . SVG Version: 6.00 Build 0)  -->
<svg version="1.1" id="Layer_1" xmlns="http://www.w3.org/2000/svg" xmlns:xlink="http://www.w3.org/1999/xlink" x="0px" y="0px"
	 viewBox="0 0 40 40" style="enable-background:new 0 0 40 40;" xml:space="preserve">
<style type="text/css">
	.st0{fill:none;stroke:#000000;stroke-width:1.5;stroke-linecap:round;}
	.st1{fill:#FFFFFF;stroke:#000000;stroke-width:1.5;}
	.st2{fill:#FFFFFF;stroke:#000000;stroke-width:1.5;stroke-linecap:round;stroke-linejoin:round;}
	.st3{fill:none;stroke:#000000;stroke-width:1.5;stroke-linecap:round;stroke-linejoin:round;}
</style>
<g transform="translate(0,0)">
	<path class="st0" d="M20,8.8V3.2"/>
	<path class="st0" d="M17.5,5.2h5"/>
	<path class="st1" d="M20,22.2c0,0,4.5-7.5,3-10.5c0,0-1-2.5-3-2.5s-3,2.5-3,2.5C15.5,14.7,20,22.2,20,22.2"/>
	<path class="st2" d="M9,34.2c5.5,3.5,15.5,3.5,21,0v-7c0,0,9-4.5,6-10.5c-4-6.5-13.5-3.5-16,4v3.5v-3.5c-3.5-7.5-13-10.5-16-4
		c-3,6,5,10,5,10V34.2z"/>
	<path class="st3" d="M9,27.2c5.5-3,15.5-3,21,0"/>
	<path class="st3" d="M9,30.7c5.5-3,15.5-3,21,0"/>
	<path class="st3" d="M9,34.2c5.5-3,15.5-3,21,0"/>
</g>
</svg>
