<?xml version="1.0" encoding="utf-8"?>
<!-- Generator: Adobe Illustrator 21.0.0, SVG Export Plug-In . SVG Version: 6.00 Build 0)  -->
<svg version="1.1" id="Layer_1" xmlns="http://www.w3.org/2000/svg" xmlns:xlink="http://www.w3.org/1999/xlink" x="0px" y="0px"
	 viewBox="0 0 40 40" style="enable-background:new 0 0 40 40;" xml:space="preserve">
<style type="text/css">
	.st0{fill:#FFFFFF;stroke:#000000;stroke-width:1.5;stroke-linecap:round;stroke-linejoin:round;}
	.st1{fill:#FFFFFF;stroke:#000000;stroke-width:1.5;stroke-linejoin:round;}
	.st2{fill:none;stroke:#000000;stroke-width:1.5;stroke-linecap:round;stroke-linejoin:round;}
</style>
<g transform="translate(45,0)">
	<path class="st0" d="M-39.5,9.6c0,1.1-0.9,2-2,2s-2-0.9-2-2s0.9-2,2-2C-40.4,7.6-39.5,8.5-39.5,9.6z"/>
	<path class="st0" d="M-23,5.1c0,1.1-0.9,2-2,2s-2-0.9-2-2s0.9-2,2-2C-23.9,3.1-23,4-23,5.1z"/>
	<path class="st0" d="M-6.5,9.6c0,1.1-0.9,2-2,2s-2-0.9-2-2s0.9-2,2-2S-6.5,8.5-6.5,9.6z"/>
	<path class="st0" d="M-31.5,6.1c0,1.1-0.9,2-2,2c-1.1,0-2-0.9-2-2s0.9-2,2-2C-32.4,4.1-31.5,5-31.5,6.1z"/>
	<path class="st0" d="M-14.5,6.6c0,1.1-0.9,2-2,2s-2-0.9-2-2s0.9-2,2-2C-15.4,4.6-14.5,5.5-14.5,6.6z"/>
	<path class="st1" d="M-38.5,23.6c8.5-1.5,21-1.5,27,0l2-12l-7,11v-14L-22,22.1l-3-15l-3,15l-5.5-14v14.5l-7-11L-38.5,23.6z"/>
	<path class="st1" d="M-38.5,23.6c0,2,1.5,2,2.5,4c1,1.5,1,1,0.5,3.5c-1.5,1-1.5,2.5-1.5,2.5c-1.5,1.5,0.5,2.5,0.5,2.5
		c6.5,1,16.5,1,23,0c0,0,1.5-1,0-2.5c0,0,0.5-1.5-1-2.5c-0.5-2.5-0.5-2,0.5-3.5c1-2,2.5-2,2.5-4C-20,22.1-30,22.1-38.5,23.6z"/>
	<path class="st2" d="M-36,27.6c3.5-1,18.5-1,22,0"/>
	<path class="st2" d="M-35.5,31.1c6-1,15-1,21,0"/>
</g>
</svg>
